<svg xmlns="http://www.w3.org/2000/svg" xmlns:xlink="http://www.w3.org/1999/xlink" width="32" height="32" viewBox="0 0 32 32">
  <defs>
    <clipPath id="clip-Custom_Size_1">
      <rect width="32" height="32"/>
    </clipPath>
  </defs>
  <g id="Custom_Size_1" data-name="Custom Size – 1" clip-path="url(#clip-Custom_Size_1)">
    <g id="information_2_" data-name="information (2)" transform="translate(1 1)" opacity="0.7">
      <path id="Path_6" data-name="Path 6" d="M15,0A15,15,0,1,0,30,15,15.017,15.017,0,0,0,15,0Z"/>
      <path id="Path_7" data-name="Path 7" d="M147.062,70a2.061,2.061,0,1,0,2.06,2.062A2.063,2.063,0,0,0,147.062,70Z" transform="translate(-132.062 -63.753)" fill="#fff"/>
      <path id="Path_8" data-name="Path 8" d="M151.545,140A1.545,1.545,0,0,0,150,141.545v9.273a1.545,1.545,0,0,0,3.091,0v-9.273A1.545,1.545,0,0,0,151.545,140Z" transform="translate(-136.545 -128.242)" fill="#fff"/>
    </g>
  </g>
</svg>
