<svg id="analytics" xmlns="http://www.w3.org/2000/svg" width="71" height="71" viewBox="0 0 71 71">
  <path id="Path_20" data-name="Path 20" d="M72.68,10H15.547A5.547,5.547,0,0,0,10,15.547v4.438H78.227V15.547A5.547,5.547,0,0,0,72.68,10Z" transform="translate(-8.613 -8.613)" fill="#8fa9c6"/>
  <path id="Path_21" data-name="Path 21" d="M21,82H86.873" transform="translate(-18.091 -70.629)" fill="#231f20"/>
  <rect id="Rectangle_15" data-name="Rectangle 15" width="9" height="16" transform="translate(8 54)" fill="#8fa9c6"/>
  <rect id="Rectangle_16" data-name="Rectangle 16" width="9" height="19" transform="translate(39 51)" fill="#8fa9c6"/>
  <rect id="Rectangle_17" data-name="Rectangle 17" width="8.875" height="30.587" transform="translate(23.297 39.026)" fill="#8fa9c6"/>
  <rect id="Rectangle_18" data-name="Rectangle 18" width="8.875" height="32.657" transform="translate(54.359 36.956)" fill="#8fa9c6"/>
  <circle id="Ellipse_5" data-name="Ellipse 5" cx="3.605" cy="3.605" r="3.605" transform="translate(23.348 20.238)" fill="#8fa9c6"/>
  <circle id="Ellipse_6" data-name="Ellipse 6" cx="3.605" cy="3.605" r="3.605" transform="translate(39.531 36.748)" fill="#8fa9c6"/>
  <circle id="Ellipse_7" data-name="Ellipse 7" cx="3.605" cy="3.605" r="3.605" transform="translate(55.191 20.238)" fill="#8fa9c6"/>
  <circle id="Ellipse_8" data-name="Ellipse 8" cx="3.605" cy="3.605" r="3.605" transform="translate(8.506 35.421)" fill="#8fa9c6"/>
  <path id="Path_22" data-name="Path 22" d="M66.158,61.085A4.848,4.848,0,0,0,71,56.243V6.934A6.941,6.941,0,0,0,64.066,0H6.934A6.941,6.941,0,0,0,0,6.934v49.31a4.848,4.848,0,0,0,4.842,4.842H6.379v7.141H1.387a1.387,1.387,0,0,0,0,2.773H69.613a1.387,1.387,0,0,0,0-2.773H64.621V61.085ZM6.934,2.773H64.066a4.165,4.165,0,0,1,4.16,4.16V9.984H2.913c-.047,0-.093,0-.139.007V6.934A4.165,4.165,0,0,1,6.934,2.773ZM9.152,68.227V55.746h6.1v12.48Zm15.531,0V40.413h6.1V68.227Zm15.531,0V52.141h6.1V68.227Zm15.531,0V53.285a1.387,1.387,0,0,0-2.773,0V68.227H49.09V50.754A1.387,1.387,0,0,0,47.7,49.367H38.828a1.387,1.387,0,0,0-1.387,1.387V68.227H33.559v-29.2a1.387,1.387,0,0,0-1.387-1.387H23.3a1.387,1.387,0,0,0-1.387,1.387v29.2H18.027V54.359a1.387,1.387,0,0,0-1.387-1.387H7.766a1.387,1.387,0,0,0-1.387,1.387v3.952H4.842a2.071,2.071,0,0,1-2.069-2.069V12.751c.046,0,.092.007.139.007H68.227V56.243a2.071,2.071,0,0,1-2.069,2.069H64.621V36.956a1.387,1.387,0,0,0-1.387-1.387H54.359a1.387,1.387,0,0,0-1.387,1.387v7a1.387,1.387,0,0,0,2.773,0V38.343h6.1V68.227Z" fill="#fff"/>
  <path id="Path_23" data-name="Path 23" d="M213.452,38.773h31.331a1.387,1.387,0,0,0,0-2.773H213.452a1.387,1.387,0,0,0,0,2.773Z" transform="translate(-182.658 -31.008)" fill="#fff"/>
  <path id="Path_24" data-name="Path 24" d="M95.387,38.773a1.387,1.387,0,1,0-.98-.406A1.4,1.4,0,0,0,95.387,38.773Z" transform="translate(-80.965 -31.008)" fill="#fff"/>
  <path id="Path_25" data-name="Path 25" d="M55.387,38.773a1.387,1.387,0,1,0-.98-.406A1.4,1.4,0,0,0,55.387,38.773Z" transform="translate(-46.512 -31.008)" fill="#fff"/>
  <path id="Path_26" data-name="Path 26" d="M135.387,38.773a1.387,1.387,0,1,0-.98-.406A1.4,1.4,0,0,0,135.387,38.773Z" transform="translate(-115.418 -31.008)" fill="#fff"/>
  <path id="Path_27" data-name="Path 27" d="M383.387,342.64a1.387,1.387,0,1,0,.98.406A1.392,1.392,0,0,0,383.387,342.64Z" transform="translate(-329.027 -295.125)" fill="#fff"/>
  <path id="Path_28" data-name="Path 28" d="M103.014,145.923a5,5,0,1,0-4.039-2.064l-9.211,9.211a4.98,4.98,0,0,0-4.6-.112l-9.618-9.618a4.992,4.992,0,1,0-8.615.215l-8.189,8.189a5,5,0,1,0,1.961,1.961l8.287-8.287a4.981,4.981,0,0,0,4.595-.117l9.524,9.524a4.992,4.992,0,1,0,8.62.206l9.458-9.458A4.96,4.96,0,0,0,103.014,145.923Zm0-7.211a2.219,2.219,0,1,1-2.219,2.219A2.221,2.221,0,0,1,103.014,138.712ZM56.328,158.334a2.219,2.219,0,1,1,2.219-2.219A2.221,2.221,0,0,1,56.328,158.334ZM71.171,143.15a2.219,2.219,0,1,1,2.219-2.219A2.221,2.221,0,0,1,71.171,143.15Zm16.183,16.51a2.219,2.219,0,1,1,2.219-2.219A2.221,2.221,0,0,1,87.354,159.66Z" transform="translate(-44.217 -117.088)" fill="#fff"/>
  <path id="Path_29" data-name="Path 29" d="M132.647,128.793a1.385,1.385,0,1,0-.982-.406A1.4,1.4,0,0,0,132.647,128.793Z" transform="translate(-113.058 -108.545)" fill="#fff"/>
  <path id="Path_30" data-name="Path 30" d="M47.387,128.794h6.656a1.387,1.387,0,0,0,0-2.773H47.387a1.387,1.387,0,0,0,0,2.773Z" transform="translate(-39.621 -108.545)" fill="#fff"/>
  <path id="Path_31" data-name="Path 31" d="M54.043,176.794a1.387,1.387,0,0,0,0-2.773H47.387a1.387,1.387,0,0,0,0,2.773Z" transform="translate(-39.621 -149.889)" fill="#fff"/>
</svg>
