<svg xmlns="http://www.w3.org/2000/svg" width="70.333" height="71.15" viewBox="0 0 70.333 71.15">
  <g id="search_1_" data-name="search (1)" transform="translate(0 0)">
    <path id="Path_3" data-name="Path 3" d="M370.488,19.858a2.372,2.372,0,0,0,2.372,2.372h11.858L370.488,8Zm0,0" transform="translate(-315.57 -6.814)" fill="#8fa9c6"/>
    <path id="Path_4" data-name="Path 4" d="M40.874,133.1a21.347,21.347,0,1,0-11.36,3.273,21.257,21.257,0,0,0,11.36-3.273Zm-19.317-3.5a16.6,16.6,0,1,1,22.555-6.688,16.343,16.343,0,0,1-6.711,6.712,16.648,16.648,0,0,1-15.843-.024Zm0,0" transform="translate(-6.957 -79.794)" fill="#8fa9c6"/>
    <path id="Path_5" data-name="Path 5" d="M228.809,321.033l11.135,11.123a4.743,4.743,0,0,0,6.7-6.7l-11.123-11.135A21.257,21.257,0,0,1,228.809,321.033Zm0,0" transform="translate(-194.892 -267.729)" fill="#8fa9c6"/>
    <g id="Group_10" data-name="Group 10" transform="translate(0 0)">
      <path id="Path_6" data-name="Path 6" d="M70.318,15.341a1.138,1.138,0,0,0-.061-.3c-.013-.038-.023-.075-.039-.112a1.191,1.191,0,0,0-.237-.347L55.751.347A1.167,1.167,0,0,0,55.4.11C55.368.094,55.332.084,55.3.071a1.167,1.167,0,0,0-.311-.062c-.02,0-.042-.009-.067-.009H19.342a5.937,5.937,0,0,0-5.929,5.929v8.728a22.486,22.486,0,0,0,0,41.149v9.415a5.937,5.937,0,0,0,5.929,5.929H64.4a5.936,5.936,0,0,0,5.929-5.929V15.416c0-.026-.013-.049-.015-.075ZM66.285,14.23h-9A1.186,1.186,0,0,1,56.1,13.044v-9ZM2.4,35.231A20.133,20.133,0,0,1,22.556,15.072q1.011,0,2,.1A20.1,20.1,0,0,1,42.466,32.212a20.357,20.357,0,0,1,.248,3.019,20.159,20.159,0,0,1-40.317,0ZM36.329,53.045c.162-.126.323-.25.481-.379a22.192,22.192,0,0,0,1.68-1.5,22.288,22.288,0,0,0,1.5-1.679c.129-.159.254-.32.379-.482.144-.188.3-.365.437-.556L50.915,58.569a3.531,3.531,0,0,1,0,5.017,3.612,3.612,0,0,1-5.021,0l-10.122-10.1c.191-.139.37-.293.556-.437ZM64.4,68.779H19.342a3.558,3.558,0,0,1-3.558-3.558v-8.49c.074.024.151.039.225.062.19.058.382.1.574.157.444.119.891.237,1.342.326.222.046.444.089.668.129.452.079.907.142,1.365.195.2.023.406.052.611.069.657.056,1.318.093,1.986.093a22.383,22.383,0,0,0,11.17-2.976L44.211,65.26a5.929,5.929,0,1,0,8.38-8.373L42.111,46.4a22.376,22.376,0,0,0,2.976-11.169q0-1.126-.109-2.235A22.526,22.526,0,0,0,22.556,12.7c-.668,0-1.329.037-1.986.093-.2.018-.408.046-.612.07q-.684.076-1.361.195-.338.059-.673.129c-.446.093-.888.2-1.327.323-.2.053-.394.1-.593.16-.074.023-.148.038-.222.062v-7.8a3.558,3.558,0,0,1,3.558-3.558H53.732V13.044A3.558,3.558,0,0,0,57.289,16.6H67.962V65.221A3.557,3.557,0,0,1,64.4,68.779Zm0,0" transform="translate(0 0)" fill="#fff"/>
      <path id="Path_7" data-name="Path 7" d="M166.948,49.186A1.186,1.186,0,0,0,165.762,48H139.674a1.186,1.186,0,1,0,0,2.372h26.088A1.186,1.186,0,0,0,166.948,49.186Zm0,0" transform="translate(-117.96 -40.885)" fill="#fff"/>
      <path id="Path_8" data-name="Path 8" d="M329.9,192h-14.23a1.186,1.186,0,1,0,0,2.372H329.9a1.186,1.186,0,1,0,0-2.372Zm0,0" transform="translate(-267.872 -163.54)" fill="#fff"/>
      <path id="Path_9" data-name="Path 9" d="M329.9,240h-14.23a1.186,1.186,0,1,0,0,2.372H329.9a1.186,1.186,0,1,0,0-2.372Zm0,0" transform="translate(-267.872 -204.425)" fill="#fff"/>
      <path id="Path_10" data-name="Path 10" d="M324.276,289.186A1.186,1.186,0,0,0,323.09,288H307.674a1.186,1.186,0,0,0,0,2.372H323.09A1.186,1.186,0,0,0,324.276,289.186Zm0,0" transform="translate(-261.057 -245.31)" fill="#fff"/>
      <path id="Path_11" data-name="Path 11" d="M351.532,337.186A1.186,1.186,0,0,0,350.346,336H339.674a1.186,1.186,0,0,0,0,2.372h10.673A1.186,1.186,0,0,0,351.532,337.186Zm0,0" transform="translate(-288.314 -286.195)" fill="#fff"/>
      <path id="Path_12" data-name="Path 12" d="M262.346,97.186A1.186,1.186,0,0,0,261.161,96h-9.487a1.186,1.186,0,0,0,0,2.372h9.487A1.186,1.186,0,0,0,262.346,97.186Zm0,0" transform="translate(-213.358 -81.77)" fill="#fff"/>
      <path id="Path_13" data-name="Path 13" d="M310.647,145.186A1.186,1.186,0,0,0,309.461,144H291.674a1.186,1.186,0,0,0,0,2.372h17.788A1.186,1.186,0,0,0,310.647,145.186Zm0,0" transform="translate(-247.429 -122.655)" fill="#fff"/>
      <path id="Path_14" data-name="Path 14" d="M115.674,186.372h8.3a1.186,1.186,0,1,0,0-2.372h-8.3a1.186,1.186,0,1,0,0,2.372Zm0,0" transform="translate(-97.518 -156.726)" fill="#fff"/>
      <path id="Path_15" data-name="Path 15" d="M102.647,233.186A1.186,1.186,0,0,0,101.461,232H83.674a1.186,1.186,0,1,0,0,2.372h17.788A1.186,1.186,0,0,0,102.647,233.186Zm0,0" transform="translate(-70.261 -197.611)" fill="#fff"/>
      <path id="Path_16" data-name="Path 16" d="M123.975,280h-8.3a1.186,1.186,0,1,0,0,2.372h8.3a1.186,1.186,0,1,0,0-2.372Zm0,0" transform="translate(-97.518 -238.496)" fill="#fff"/>
      <path id="Path_17" data-name="Path 17" d="M58.383,151.14a17.39,17.39,0,0,0,6.918-6.71c.094-.164.2-.323.284-.489.046-.086.082-.174.126-.26.18-.346.356-.693.511-1.047s.278-.691.4-1.04c.036-.1.083-.2.119-.3a17.8,17.8,0,1,0-8.362,9.854Zm-15.831-2.113a15.3,15.3,0,0,1-3.511-2.63,15.614,15.614,0,0,1-1.935-2.354q-.42-.629-.775-1.291a15.417,15.417,0,1,1,27.165.068v.01a15.155,15.155,0,0,1-6.228,6.225,15.372,15.372,0,0,1-14.716-.023Zm0,0" transform="translate(-27.386 -100.267)" fill="#fff"/>
      <path id="Path_18" data-name="Path 18" d="M386.789,384a1.186,1.186,0,0,0-1.186,1.186v4.743a1.186,1.186,0,0,1-1.186,1.186h-4.743a1.186,1.186,0,1,0,0,2.372h4.743a3.557,3.557,0,0,0,3.557-3.557v-4.743A1.186,1.186,0,0,0,386.789,384Zm0,0" transform="translate(-322.385 -327.08)" fill="#fff"/>
    </g>
  </g>
</svg>
